<?xml version="1.0" encoding="UTF-8" standalone="no"?>
<svg
   xmlns:dc="http://purl.org/dc/elements/1.1/"
   xmlns:cc="http://creativecommons.org/ns#"
   xmlns:rdf="http://www.w3.org/1999/02/22-rdf-syntax-ns#"
   xmlns:svg="http://www.w3.org/2000/svg"
   xmlns="http://www.w3.org/2000/svg"
   xmlns:sodipodi="http://sodipodi.sourceforge.net/DTD/sodipodi-0.dtd"
   xmlns:inkscape="http://www.inkscape.org/namespaces/inkscape"
   width="219"
   height="72"
   viewBox="0 0 219 72"
   fill="none"
   version="1.1"
   id="svg4"
   sodipodi:docname="logo.svg"
   inkscape:version="1.0.2-2 (e86c870879, 2021-01-15)">
  <metadata
     id="metadata10">
    <rdf:RDF>
      <cc:Work
         rdf:about="">
        <dc:format>image/svg+xml</dc:format>
        <dc:type
           rdf:resource="http://purl.org/dc/dcmitype/StillImage" />
      </cc:Work>
    </rdf:RDF>
  </metadata>
  <defs
     id="defs8" />
  <sodipodi:namedview
     pagecolor="#ffffff"
     bordercolor="#666666"
     borderopacity="1"
     objecttolerance="10"
     gridtolerance="10"
     guidetolerance="10"
     inkscape:pageopacity="0"
     inkscape:pageshadow="2"
     inkscape:window-width="1600"
     inkscape:window-height="837"
     id="namedview6"
     showgrid="false"
     inkscape:zoom="5.1598174"
     inkscape:cx="105.8865"
     inkscape:cy="43.752212"
     inkscape:window-x="-8"
     inkscape:window-y="32"
     inkscape:window-maximized="1"
     inkscape:current-layer="svg4" />
  <g
     id="svgGroup"
     stroke-linecap="round"
     fill-rule="evenodd"
     font-size="12px"
     stroke="#000"
     stroke-width="0.25mm"
     fill="black"
     style="fill:#ffffff;stroke:none;stroke-width:0.40527mm;stroke-opacity:1"
     transform="matrix(0.55785891,0,0,0.68211423,53.006933,24.279215)">
    <path
       d="m 18.116,0.001 h 5.444 a 18.093,18.093 0 0 1 6.055,0.989 16.388,16.388 0 0 1 3.747,1.892 10.162,10.162 0 0 1 2.679,2.574 q 1.501,2.147 1.578,5.004 a 11.532,11.532 0 0 1 0.004,0.307 3.809,3.809 0 0 1 -0.072,0.765 q -0.175,0.856 -0.783,1.298 a 3.849,3.849 0 0 1 -0.608,0.367 q -0.381,0.182 -0.752,0.234 a 2.139,2.139 0 0 1 -0.3,0.022 H 32.203 A 3.296,3.296 0 0 1 29.6,12.198 Q 29.105,11.617 28.712,10.767 27.075,7.272 23.473,6.944 A 8.456,8.456 0 0 0 22.706,6.91 H 18.36 a 19.454,19.454 0 0 0 -2.458,0.143 q -2.658,0.34 -4.107,1.485 a 4.562,4.562 0 0 0 -0.686,0.667 6.165,6.165 0 0 0 -0.984,1.761 q -0.92,2.423 -0.92,6.735 0,4.85 1.165,7.318 a 5.644,5.644 0 0 0 0.739,1.19 q 1.904,2.307 7.251,2.307 h 4.858 a 7.056,7.056 0 0 0 2.595,-0.453 q 2.215,-0.869 3.387,-3.404 a 6.617,6.617 0 0 1 0.722,-1.233 q 0.519,-0.687 1.159,-1.054 a 3.224,3.224 0 0 1 1.634,-0.423 h 2.906 a 2.481,2.481 0 0 1 0.853,0.141 2.148,2.148 0 0 1 0.966,0.713 3.196,3.196 0 0 1 0.513,0.921 2.813,2.813 0 0 1 0.158,0.935 q 0,4.663 -3.687,7.471 a 12.106,12.106 0 0 1 -0.561,0.402 16.816,16.816 0 0 1 -8.678,2.839 20.686,20.686 0 0 1 -1.112,0.03 h -5.957 q -5.958,0 -9.956,-1.87 A 13.48,13.48 0 0 1 4.529,31.08 13.298,13.298 0 0 1 1.205,25.785 Q 0.452,23.655 0.17,21.034 A 31.054,31.054 0 0 1 0.001,17.713 28.671,28.671 0 0 1 0.4,12.758 Q 0.871,10.075 1.901,7.972 A 12.718,12.718 0 0 1 4.529,4.334 Q 9.058,0.001 18.116,0.001 Z"
       id="0"
       vector-effect="non-scaling-stroke"
       style="fill:#ffffff;stroke:none;stroke-width:0.477356mm;stroke-opacity:1" />
    <path
       d="m 41.523,27 a 11.195,11.195 0 0 0 3.131,5.178 q 3.809,3.516 10.95,3.516 7.141,0 10.949,-3.516 a 10.543,10.543 0 0 0 1.694,-2.008 q 1.206,-1.855 1.724,-4.31 a 19.603,19.603 0 0 0 0.391,-4.045 23.024,23.024 0 0 0 -0.033,-1.236 Q 70.214,18.424 69.684,16.632 A 11.149,11.149 0 0 0 66.553,11.463 Q 63.965,9.082 59.836,8.319 A 23.327,23.327 0 0 0 55.604,7.96 26.173,26.173 0 0 0 53.502,8.041 q -2.227,0.18 -4.078,0.754 a 12.322,12.322 0 0 0 -4.77,2.668 10.504,10.504 0 0 0 -1.779,2.135 q -1.161,1.84 -1.658,4.263 a 19.69,19.69 0 0 0 -0.372,3.954 23.03,23.03 0 0 0 0.033,1.235 q 0.116,2.156 0.645,3.95 z m 9.308,-11.521 a 6.006,6.006 0 0 0 -0.878,1.683 q -0.55,1.577 -0.624,3.899 a 23.219,23.219 0 0 0 -0.012,0.741 q 0,3.939 1.244,5.953 a 5.088,5.088 0 0 0 0.27,0.395 q 1.513,2.002 4.773,2.002 2.391,0 3.85,-1.078 a 4.638,4.638 0 0 0 0.935,-0.924 6.136,6.136 0 0 0 0.896,-1.73 q 0.567,-1.643 0.623,-4.071 a 23.497,23.497 0 0 0 0.007,-0.547 19.622,19.622 0 0 0 -0.118,-2.228 Q 61.491,16.908 60.389,15.479 A 4.827,4.827 0 0 0 57.804,13.78 Q 56.979,13.545 55.98,13.508 a 10.255,10.255 0 0 0 -0.376,-0.006 q -3.26,0 -4.773,1.977 z"
       id="1"
       vector-effect="non-scaling-stroke"
       style="fill:#ffffff;stroke:none;stroke-width:0.477356mm;stroke-opacity:1" />
    <path
       d="M 93.506,9.205 V 1.71 a 1.666,1.666 0 0 1 0.082,-0.533 1.407,1.407 0 0 1 0.346,-0.554 1.438,1.438 0 0 1 1.042,-0.427 1.87,1.87 0 0 1 0.02,0 h 5.444 a 1.666,1.666 0 0 1 0.532,0.082 1.407,1.407 0 0 1 0.554,0.345 1.443,1.443 0 0 1 0.423,0.955 1.931,1.931 0 0 1 0.005,0.132 v 32.006 a 1.551,1.551 0 0 1 -0.104,0.575 1.425,1.425 0 0 1 -0.324,0.487 1.443,1.443 0 0 1 -0.954,0.423 1.931,1.931 0 0 1 -0.132,0.005 H 95.753 A 1.656,1.656 0 0 1 95.241,35.13 1.355,1.355 0 0 1 94.678,34.778 Q 94.263,34.351 94.263,33.716 V 32.96 q -3.857,2.734 -8.96,2.734 A 11.915,11.915 0 0 1 80.486,34.74 11.462,11.462 0 0 1 76.771,32.105 Q 73.739,28.933 73.387,23.329 A 24.16,24.16 0 0 1 73.34,21.815 q 0,-6.702 3.553,-10.279 A 11.85,11.85 0 0 1 83.267,8.243 17.115,17.115 0 0 1 86.451,7.96 q 2.637,0 5.893,0.9 a 34.623,34.623 0 0 1 1.162,0.345 z m 0,18.408 V 14.844 a 28.499,28.499 0 0 0 -1.87,-0.515 q -1.95,-0.461 -3.427,-0.461 a 9.39,9.39 0 0 0 -1.728,0.147 q -0.944,0.177 -1.666,0.567 a 4.07,4.07 0 0 0 -1.367,1.178 q -1.392,1.892 -1.392,6.067 0,3.648 1.007,5.562 a 4.972,4.972 0 0 0 0.312,0.517 4.288,4.288 0 0 0 3.096,1.848 6.501,6.501 0 0 0 0.871,0.056 q 1.882,0 4.203,-1.11 a 20.007,20.007 0 0 0 1.961,-1.087 z"
       id="2"
       vector-effect="non-scaling-stroke"
       style="fill:#ffffff;stroke:none;stroke-width:0.477356mm;stroke-opacity:1" />
    <path
       d="m 134.962,21.509 v 1.392 a 1.666,1.666 0 0 1 -0.082,0.532 1.407,1.407 0 0 1 -0.346,0.554 1.443,1.443 0 0 1 -0.955,0.423 1.931,1.931 0 0 1 -0.131,0.005 h -18.384 a 10.624,10.624 0 0 0 0.254,1.639 q 0.429,1.77 1.467,2.731 1.464,1.355 4.666,1.367 a 15.295,15.295 0 0 0 0.058,0 q 2.835,0 4.107,-1.116 a 2.927,2.927 0 0 0 0.337,-0.349 q 1.196,-1.465 2.954,-1.489 h 3.638 a 1.666,1.666 0 0 1 0.532,0.082 1.407,1.407 0 0 1 0.554,0.345 1.443,1.443 0 0 1 0.423,0.955 1.931,1.931 0 0 1 0.004,0.132 5.687,5.687 0 0 1 -3.627,5.393 q -3.332,1.601 -9.727,1.589 -5.383,0 -8.865,-2.275 a 11.548,11.548 0 0 1 -1.633,-1.289 q -3.76,-3.565 -3.76,-10.267 a 19.045,19.045 0 0 1 0.407,-4.064 q 0.835,-3.819 3.377,-6.238 a 12.497,12.497 0 0 1 5.527,-3.007 q 1.954,-0.518 4.276,-0.584 a 24.194,24.194 0 0 1 0.695,-0.01 q 5.329,0 8.797,2.207 a 11.553,11.553 0 0 1 1.677,1.296 q 3.627,3.38 3.755,9.59 a 22.224,22.224 0 0 1 0.005,0.456 z m -19.947,-2.246 h 11.353 a 8.962,8.962 0 0 0 -0.365,-2.28 q -0.915,-2.939 -4.053,-3.397 a 8.554,8.554 0 0 0 -1.234,-0.084 7.318,7.318 0 0 0 -2.303,0.332 q -3.175,1.052 -3.398,5.429 z"
       id="3"
       vector-effect="non-scaling-stroke"
       style="fill:#ffffff;stroke:none;stroke-width:0.477356mm;stroke-opacity:1" />
    <path
       d="m 156.055,0.001 h 5.445 a 18.093,18.093 0 0 1 6.054,0.989 16.388,16.388 0 0 1 3.748,1.892 10.162,10.162 0 0 1 2.678,2.574 q 1.502,2.147 1.578,5.004 a 11.532,11.532 0 0 1 0.004,0.307 3.809,3.809 0 0 1 -0.071,0.765 q -0.176,0.856 -0.783,1.298 a 3.849,3.849 0 0 1 -0.608,0.367 q -0.381,0.182 -0.752,0.234 a 2.139,2.139 0 0 1 -0.301,0.022 h -2.905 a 3.296,3.296 0 0 1 -2.603,-1.255 q -0.494,-0.581 -0.888,-1.431 -1.637,-3.495 -5.238,-3.823 A 8.456,8.456 0 0 0 160.645,6.91 h -4.346 a 19.454,19.454 0 0 0 -2.458,0.143 q -2.657,0.34 -4.107,1.485 a 4.562,4.562 0 0 0 -0.686,0.667 6.165,6.165 0 0 0 -0.983,1.761 q -0.921,2.423 -0.921,6.735 0,4.85 1.165,7.318 a 5.644,5.644 0 0 0 0.739,1.19 q 1.905,2.307 7.251,2.307 h 4.859 a 7.056,7.056 0 0 0 2.595,-0.453 q 2.215,-0.869 3.386,-3.404 a 6.617,6.617 0 0 1 0.722,-1.233 q 0.52,-0.687 1.16,-1.054 a 3.224,3.224 0 0 1 1.634,-0.423 h 2.905 a 2.481,2.481 0 0 1 0.854,0.141 2.148,2.148 0 0 1 0.965,0.713 3.196,3.196 0 0 1 0.514,0.921 2.813,2.813 0 0 1 0.157,0.935 q 0,4.663 -3.687,7.471 a 12.106,12.106 0 0 1 -0.561,0.402 16.816,16.816 0 0 1 -8.677,2.839 20.686,20.686 0 0 1 -1.113,0.03 h -5.957 q -5.958,0 -9.956,-1.87 a 13.48,13.48 0 0 1 -3.63,-2.451 13.298,13.298 0 0 1 -3.325,-5.295 q -0.752,-2.13 -1.035,-4.751 a 31.054,31.054 0 0 1 -0.169,-3.321 28.671,28.671 0 0 1 0.399,-4.955 q 0.472,-2.683 1.501,-4.786 a 12.718,12.718 0 0 1 2.629,-3.638 q 4.529,-4.333 13.586,-4.333 z"
       id="4"
       vector-effect="non-scaling-stroke"
       style="fill:#ffffff;stroke:none;stroke-width:0.477356mm;stroke-opacity:1" />
    <path
       d="m 207.3,21.509 v 1.392 a 1.666,1.666 0 0 1 -0.081,0.532 1.407,1.407 0 0 1 -0.346,0.554 1.443,1.443 0 0 1 -0.955,0.423 1.931,1.931 0 0 1 -0.131,0.005 h -18.384 a 10.624,10.624 0 0 0 0.254,1.639 q 0.429,1.77 1.467,2.731 1.464,1.355 4.666,1.367 a 15.295,15.295 0 0 0 0.058,0 q 2.835,0 4.107,-1.116 a 2.927,2.927 0 0 0 0.337,-0.349 q 1.196,-1.465 2.954,-1.489 h 3.637 a 1.666,1.666 0 0 1 0.533,0.082 1.407,1.407 0 0 1 0.554,0.345 1.443,1.443 0 0 1 0.423,0.955 1.931,1.931 0 0 1 0.004,0.132 5.687,5.687 0 0 1 -3.627,5.393 q -3.332,1.601 -9.727,1.589 -5.383,0 -8.865,-2.275 a 11.548,11.548 0 0 1 -1.633,-1.289 q -3.76,-3.565 -3.76,-10.267 a 19.045,19.045 0 0 1 0.407,-4.064 q 0.834,-3.819 3.377,-6.238 a 12.497,12.497 0 0 1 5.526,-3.007 q 1.955,-0.518 4.277,-0.584 a 24.194,24.194 0 0 1 0.695,-0.01 q 5.329,0 8.797,2.207 a 11.553,11.553 0 0 1 1.677,1.296 q 3.627,3.38 3.755,9.59 a 22.224,22.224 0 0 1 0.004,0.456 z m -19.946,-2.246 h 11.353 a 8.962,8.962 0 0 0 -0.365,-2.28 q -0.915,-2.939 -4.053,-3.397 a 8.554,8.554 0 0 0 -1.234,-0.084 7.318,7.318 0 0 0 -2.303,0.332 q -3.175,1.052 -3.398,5.429 z"
       id="5"
       vector-effect="non-scaling-stroke"
       style="fill:#ffffff;stroke:none;stroke-width:0.477356mm;stroke-opacity:1" />
    <path
       d="M 209.278,4.81 V 2.515 a 2.492,2.492 0 0 1 0.14,-0.85 2.181,2.181 0 0 1 0.519,-0.81 2.226,2.226 0 0 1 1.536,-0.656 2.946,2.946 0 0 1 0.124,-0.003 h 30.982 a 2.492,2.492 0 0 1 0.85,0.14 2.181,2.181 0 0 1 0.81,0.519 2.226,2.226 0 0 1 0.656,1.537 2.946,2.946 0 0 1 0.003,0.123 V 4.81 a 2.49,2.49 0 0 1 -0.126,0.808 2.125,2.125 0 0 1 -0.533,0.84 2.237,2.237 0 0 1 -1.491,0.642 2.967,2.967 0 0 1 -0.169,0.005 H 231.69 V 32.96 a 2.217,2.217 0 0 1 -0.198,0.944 2.181,2.181 0 0 1 -0.473,0.655 2.254,2.254 0 0 1 -1.624,0.647 h -4.614 a 2.254,2.254 0 0 1 -1.624,-0.647 2.125,2.125 0 0 1 -0.67,-1.54 2.661,2.661 0 0 1 -0.001,-0.059 V 7.105 H 211.597 A 2.541,2.541 0 0 1 210.76,6.972 2.185,2.185 0 0 1 209.937,6.458 2.174,2.174 0 0 1 209.283,4.98 2.907,2.907 0 0 1 209.278,4.81 Z"
       id="6"
       vector-effect="non-scaling-stroke"
       style="fill:#ffffff;stroke:none;stroke-width:0.477356mm;stroke-opacity:1" />
    <path
       d="m 265.723,14.649 h -0.781 l -3.76,-0.146 q -3.296,0 -6.299,3.613 v 15.6 a 1.656,1.656 0 0 1 -0.075,0.512 1.355,1.355 0 0 1 -0.352,0.563 q -0.427,0.415 -1.062,0.415 h -5.469 a 1.706,1.706 0 0 1 -0.504,-0.071 1.362,1.362 0 0 1 -0.57,-0.344 1.399,1.399 0 0 1 -0.403,-0.855 1.91,1.91 0 0 1 -0.012,-0.22 V 9.962 a 1.666,1.666 0 0 1 0.082,-0.533 1.407,1.407 0 0 1 0.345,-0.554 1.438,1.438 0 0 1 1.043,-0.427 1.87,1.87 0 0 1 0.019,0 h 5.469 a 1.656,1.656 0 0 1 0.512,0.076 1.355,1.355 0 0 1 0.562,0.351 1.452,1.452 0 0 1 0.407,0.906 1.949,1.949 0 0 1 0.008,0.181 V 11.5 a 24.687,24.687 0 0 1 2.295,-1.488 q 1.197,-0.68 2.349,-1.127 a 15.051,15.051 0 0 1 0.154,-0.059 11.754,11.754 0 0 1 1.931,-0.528 q 1.777,-0.338 4.111,-0.338 a 1.666,1.666 0 0 1 0.533,0.081 1.407,1.407 0 0 1 0.554,0.346 1.438,1.438 0 0 1 0.427,1.042 1.87,1.87 0 0 1 0,0.02 v 3.711 a 1.656,1.656 0 0 1 -0.076,0.511 1.355,1.355 0 0 1 -0.351,0.563 1.452,1.452 0 0 1 -0.906,0.407 1.949,1.949 0 0 1 -0.181,0.008 z"
       id="7"
       vector-effect="non-scaling-stroke"
       style="fill:#ffffff;stroke:none;stroke-width:0.477356mm;stroke-opacity:1" />
    <path
       d="m 280.298,18.604 h 8.081 q 0,-2.506 -0.921,-3.678 a 2.705,2.705 0 0 0 -0.275,-0.301 3.339,3.339 0 0 0 -1.063,-0.651 q -1.185,-0.472 -3.124,-0.472 -1.686,0 -2.806,0.469 a 3.516,3.516 0 0 0 -1.393,1.008 4.318,4.318 0 0 1 -1.028,0.928 3.551,3.551 0 0 1 -1.938,0.549 h -3.638 a 1.666,1.666 0 0 1 -0.532,-0.082 1.407,1.407 0 0 1 -0.554,-0.346 1.438,1.438 0 0 1 -0.428,-1.042 1.87,1.87 0 0 1 0,-0.02 5.707,5.707 0 0 1 3.639,-5.412 q 2.728,-1.31 7.501,-1.544 a 44.381,44.381 0 0 1 2.166,-0.05 q 5.811,0 9.326,2.6 a 8.325,8.325 0 0 1 3.172,4.919 13.326,13.326 0 0 1 0.344,3.125 v 15.112 a 1.706,1.706 0 0 1 -0.071,0.504 1.362,1.362 0 0 1 -0.344,0.571 1.399,1.399 0 0 1 -0.855,0.402 1.91,1.91 0 0 1 -0.219,0.013 h -4.712 a 1.656,1.656 0 0 1 -0.512,-0.076 1.355,1.355 0 0 1 -0.563,-0.352 q -0.415,-0.427 -0.415,-1.062 V 32.96 a 14.752,14.752 0 0 1 -8.464,2.742 q -0.194,0.004 -0.39,0.004 a 18.259,18.259 0 0 1 -0.045,0 18.69,18.69 0 0 1 -3.527,-0.323 q -2.131,-0.415 -3.831,-1.363 a 10.991,10.991 0 0 1 -0.918,-0.572 7.131,7.131 0 0 1 -3.156,-5.111 9.402,9.402 0 0 1 -0.079,-1.237 8.28,8.28 0 0 1 0.455,-2.808 q 0.746,-2.084 2.717,-3.447 a 8.956,8.956 0 0 1 0.063,-0.044 12.055,12.055 0 0 1 3.931,-1.706 q 1.995,-0.491 4.406,-0.491 z m 8.081,9.351 v -3.809 h -7.495 q -1.323,0 -2.215,0.498 a 3.097,3.097 0 0 0 -0.482,0.332 2.65,2.65 0 0 0 -0.982,1.926 3.357,3.357 0 0 0 -0.007,0.223 q 0,1.318 1.025,2.173 a 3.379,3.379 0 0 0 1.172,0.62 q 0.492,0.154 1.085,0.206 a 7.318,7.318 0 0 0 0.649,0.028 13.087,13.087 0 0 0 6.153,-1.564 16.141,16.141 0 0 0 1.097,-0.633 z"
       id="8"
       vector-effect="non-scaling-stroke"
       style="fill:#ffffff;stroke:none;stroke-width:0.477356mm;stroke-opacity:1" />
  </g>
  <path
     id="path14"
     style="fill:#ffffff;fill-opacity:1;stroke-width:1"
     d="m 36.058675,2.0839 c -19.25161,0.00165 -35.60727396,15.627327 -35.60727396,34.308113 0,18.680788 16.23129796,34.438408 35.48133996,34.438408 10.820261,0 19.626772,-4.44631 26.045013,-11.562193 L 49.773857,48.844565 c -3.397078,3.81208 -8.682493,6.35347 -13.715182,6.35347 -9.687933,0 -17.739131,-8.639006 -17.739131,-18.933213 0,-10.038482 8.051061,-18.551635 17.613197,-18.551635 5.032679,0 10.190469,2.41407 13.463304,6.099082 L 61.603015,13.264517 C 55.312157,6.4027693 46.627316,2.0839 36.058675,2.0839 Z m 1.0843,22.811061 c -6.542485,0 -11.703211,5.335551 -11.703211,11.307814 0,6.480536 5.160726,11.816585 11.703211,11.816585 6.165046,0 11.196395,-5.336049 11.196395,-11.816585 0.0013,-5.970672 -5.031349,-11.307814 -11.196395,-11.307814 z"
     inkscape:export-xdpi="135.79439"
     inkscape:export-ydpi="135.79439" />
</svg>
